<svg width="40" height="40" viewBox="0 0 40 40" fill="none" xmlns="http://www.w3.org/2000/svg">
<g clip-path="url(#clip0_1303_6925)">
<path d="M20 2.5C24.6413 2.5 29.0925 4.34374 32.3744 7.62563C35.6563 10.9075 37.5 15.3587 37.5 20C37.5 24.6413 35.6563 29.0925 32.3744 32.3744C29.0925 35.6563 24.6413 37.5 20 37.5C15.3587 37.5 10.9075 35.6563 7.62563 32.3744C4.34374 29.0925 2.5 24.6413 2.5 20C2.5 15.3587 4.34374 10.9075 7.62563 7.62563C10.9075 4.34374 15.3587 2.5 20 2.5ZM20 40C25.3043 40 30.3914 37.8929 34.1421 34.1421C37.8929 30.3914 40 25.3043 40 20C40 14.6957 37.8929 9.60859 34.1421 5.85786C30.3914 2.10714 25.3043 0 20 0C14.6957 0 9.60859 2.10714 5.85786 5.85786C2.10714 9.60859 0 14.6957 0 20C0 25.3043 2.10714 30.3914 5.85786 34.1421C9.60859 37.8929 14.6957 40 20 40ZM28.3828 15.8828C28.8672 15.3984 28.8672 14.6016 28.3828 14.1172C27.8984 13.6328 27.1016 13.6328 26.6172 14.1172L17.5 23.2344L13.3828 19.1172C12.8984 18.6328 12.1016 18.6328 11.6172 19.1172C11.1328 19.6016 11.1328 20.3984 11.6172 20.8828L16.6172 25.8828C17.1016 26.3672 17.8984 26.3672 18.3828 25.8828L28.3828 15.8828Z" fill="#1D4ED8"/>
</g>
<defs>
<clipPath id="clip0_1303_6925">
<rect width="40" height="40" fill="white"/>
</clipPath>
</defs>
</svg>
