<svg width="40" height="40" viewBox="0 0 40 40" fill="none" xmlns="http://www.w3.org/2000/svg">
<path d="M29.6577 3.27848L24.3742 8.55411L31.4453 15.6252L36.7209 10.3496C37.7096 9.36088 37.7096 7.75525 36.7209 6.76657L33.2328 3.27848C32.2441 2.2898 30.6385 2.2898 29.6498 3.27848H29.6577ZM21.9302 7.42305L27.8702 1.48303C29.8476 -0.494343 33.0509 -0.494343 35.0283 1.48303L38.5164 4.97111C40.4937 6.94848 40.4937 10.1518 38.5164 12.1292L32.5763 18.0692L29.6103 28.9606C29.0329 31.0645 27.4193 32.7255 25.3233 33.3583L3.55643 39.8836C2.58356 40.1762 1.52369 39.9073 0.811837 39.1875C0.099983 38.4678 -0.176849 37.4158 0.115802 36.443L6.64904 14.6761C7.27389 12.5879 8.93488 10.9665 11.0467 10.3891L21.9302 7.42305ZM22.2149 9.96991L11.7111 12.8331C10.4456 13.1812 9.44899 14.1461 9.07725 15.4037L3.18468 35.0272L11.9009 26.3109C11.458 25.5595 11.197 24.6815 11.197 23.7403C11.197 20.9483 13.467 18.6782 16.2591 18.6782C19.0511 18.6782 21.3211 20.9483 21.3211 23.7403C21.3211 26.5324 19.0511 28.8024 16.2591 28.8024C15.3178 28.8024 14.4399 28.5493 13.6885 28.0984L4.97223 36.8147L24.5957 30.93C25.8533 30.5504 26.8261 29.5538 27.1662 28.2962L30.0295 17.7924L22.207 9.96991H22.2149ZM16.2591 21.2093C15.5878 21.2093 14.944 21.4759 14.4693 21.9506C13.9947 22.4253 13.728 23.069 13.728 23.7403C13.728 24.4116 13.9947 25.0554 14.4693 25.53C14.944 26.0047 15.5878 26.2714 16.2591 26.2714C16.9303 26.2714 17.5741 26.0047 18.0488 25.53C18.5234 25.0554 18.7901 24.4116 18.7901 23.7403C18.7901 23.069 18.5234 22.4253 18.0488 21.9506C17.5741 21.4759 16.9303 21.2093 16.2591 21.2093Z" fill="#B91C1C"/>
</svg>
