<svg width="40" height="40" viewBox="0 0 40 40" fill="none" xmlns="http://www.w3.org/2000/svg">
<path d="M24.8359 33.0234C23.1562 36.375 21.3047 37.5 20 37.5C19.3828 37.5 18.6484 37.25 17.8672 36.6406L17.3281 38.0938C17.1016 38.7031 16.7266 39.2422 16.2422 39.6484C17.4609 39.8828 18.7109 40 20 40C31.0469 40 40 31.0469 40 20C40 8.95312 31.0469 0 20 0C8.95312 0 0 8.95312 0 20C0 21.2812 0.117188 22.5391 0.351562 23.7578C0.765625 23.2734 1.29688 22.8984 1.90625 22.6719L2.65625 22.3984C2.54688 21.6172 2.49219 20.8203 2.49219 20.0078C2.49219 18.2734 2.74219 16.5938 3.21875 15.0078H10.3125C10.1172 16.5078 10.0078 18.0781 10 19.6953L12.5156 18.7656C12.5547 17.4609 12.6641 16.2031 12.8359 15.0078H27.1641C27.3828 16.5859 27.5 18.2656 27.5 20.0078C27.5 21.75 27.3828 23.4297 27.1641 25.0078H22.1562L21.2344 27.5078H26.7188C26.2578 29.6172 25.6094 31.4844 24.8359 33.0312V33.0234ZM15.1641 6.97656C16.8438 3.625 18.6953 2.5 20 2.5C21.3047 2.5 23.1562 3.625 24.8359 6.97656C25.6094 8.52344 26.2578 10.3906 26.7188 12.5H13.2812C13.7422 10.3906 14.3906 8.52344 15.1641 6.97656ZM30 20C30 18.2734 29.8906 16.6016 29.6875 15H36.7812C37.25 16.5859 37.5078 18.2656 37.5078 20C37.5078 21.7344 37.2578 23.4141 36.7812 25H29.6875C29.8906 23.3984 30 21.7266 30 20ZM29.2734 12.5C28.5234 8.78125 27.2266 5.625 25.5859 3.41406C30.1016 4.9375 33.7891 8.24219 35.8125 12.5H29.2734ZM4.1875 12.5C6.21094 8.24219 9.89844 4.92969 14.4141 3.41406C12.7734 5.625 11.4844 8.78906 10.7266 12.5H4.1875ZM29.2734 27.5H35.8203C33.7969 31.7578 30.1094 35.0703 25.5938 36.5859C27.2344 34.375 28.5312 31.2109 29.2812 27.5H29.2734ZM21.1719 20.4297C21.3438 19.9688 21.2266 19.4609 20.8828 19.1172C20.5391 18.7734 20.0234 18.6562 19.5703 18.8281L2.77344 25.0156C2.28906 25.1953 1.96875 25.6484 1.95312 26.1641C1.9375 26.6797 2.25 27.1484 2.72656 27.3438L8.50781 29.7266L0.367188 37.8672C-0.117188 38.3516 -0.117188 39.1484 0.367188 39.6328C0.851562 40.1172 1.64844 40.1172 2.13281 39.6328L10.2734 31.4922L12.6562 37.2734C12.8516 37.75 13.3203 38.0547 13.8359 38.0469C14.3516 38.0391 14.8047 37.7109 14.9844 37.2266L21.1719 20.4297ZM11.1953 28.125L6.64844 26.25L17.8906 22.1094L13.75 33.3516L11.875 28.8047C11.75 28.5 11.5 28.25 11.1953 28.125Z" fill="#15803D"/>
</svg>
