<svg id="icon_external" xmlns="http://www.w3.org/2000/svg" viewBox="0 0 15.5 15.5"><g id="external"><path id="Path" d="m7.75,0c.41,0,.75.34.75.75s-.34.75-.75.75H3.08c-.87,0-1.58.71-1.58,1.58v9.33c0,.87.71,1.58,1.58,1.58h9.33c.87,0,1.58-.71,1.58-1.58v-4.67c0-.41.34-.75.75-.75s.75.34.75.75v4.67c0,1.7-1.38,3.08-3.08,3.08H3.08c-1.7,0-3.08-1.38-3.08-3.08V3.08C0,1.38,1.38,0,3.08,0h4.67Z" fill="#121212" stroke-width="0"></path><path id="arrow_el" d="m15.5,0v4.29c0,.41-.34.75-.75.75s-.75-.34-.75-.75V1.5h-2.75c-.38,0-.69-.28-.74-.65v-.1c0-.41.33-.75.74-.75h4.25Z" fill="#121212" stroke-width="0" style="translate: none; rotate: none; scale: none; transform-origin: 0px 0px;" data-svg-origin="15.5 -5.960464477539063e-8" transform="matrix(1,0,0,1,0,0)"></path><path id="arrow-line" d="m14.22.22c.29-.29.77-.29,1.06,0,.29.29.29.77,0,1.06L5.95,10.61c-.29.29-.77.29-1.06,0-.29-.29-.29-.77,0-1.06.4-.4.76-.76,1.09-1.09l.47-.47c.37-.37.7-.7,1-1l.34-.34.46-.46.41-.41c.74-.74,1.29-1.29,2.09-2.09l.61-.61c.17-.17.34-.34.53-.53.13-.13.25-.25.36-.36l.59-.59c.08-.08.16-.16.23-.23l.36-.36c.1-.1.19-.19.26-.26l.42-.42s.07-.07.11-.11Z" fill="#121212" stroke-width="0" style="translate: none; rotate: none; scale: none; transform-origin: 0px 0px;" data-svg-origin="15.4975004196167 0.002499982714653015" transform="matrix(1,0,0,1,0,0)"></path></g></svg>